<svg id="svg" version="1.1" xmlns="http://www.w3.org/2000/svg" xmlns:xlink="http://www.w3.org/1999/xlink" width="400" height="266.6666666666667" viewBox="0, 0, 400,266.6666666666667"><g id="svgg"><path id="path0" d="M0.000 133.333 L 0.000 266.667 200.000 266.667 L 400.000 266.667 400.000 133.333 L 400.000 0.000 200.000 0.000 L 0.000 0.000 0.000 133.333 M150.853 75.977 C 153.013 78.364,153.314 95.115,151.406 106.771 C 149.071 121.041,143.447 134.106,134.831 145.279 L 132.749 147.979 132.919 151.659 C 133.281 159.465,133.883 164.215,135.166 169.387 C 136.572 175.059,137.386 174.369,124.089 178.782 C 119.219 180.398,111.622 182.962,107.208 184.480 C 97.573 187.793,97.230 187.833,96.595 185.715 C 96.321 184.801,96.375 184.541,97.251 182.549 C 99.263 177.974,99.932 170.044,98.252 170.688 C 93.147 172.647,85.932 172.822,82.090 171.080 C 77.102 168.818,75.399 165.525,73.949 155.339 C 73.003 148.694,73.247 149.320,71.517 149.104 C 65.497 148.352,64.276 144.685,67.618 137.397 C 69.863 132.499,70.730 129.587,71.745 123.534 C 73.913 110.603,75.901 104.539,79.898 98.655 C 90.613 82.882,111.594 77.551,128.332 86.348 L 131.013 87.757 132.292 87.109 C 136.034 85.213,142.773 80.736,145.759 78.163 C 149.055 75.322,149.923 74.949,150.853 75.977 M144.968 84.616 C 141.868 87.087,137.604 89.653,130.339 93.421 C 113.740 102.029,107.454 107.242,103.410 115.755 C 99.000 125.039,98.849 135.981,103.007 145.051 L 104.181 147.613 104.109 152.387 C 104.003 159.384,105.148 161.441,108.978 161.134 C 111.267 160.950,111.198 161.058,111.198 157.679 L 111.198 154.712 110.293 154.282 C 106.028 152.259,105.946 145.894,110.156 143.761 C 116.280 140.659,121.553 148.574,116.559 153.371 C 115.655 154.240,115.625 154.329,115.625 156.169 L 115.625 158.070 118.164 156.028 C 134.135 143.184,145.275 122.303,147.499 101.042 C 148.230 94.050,148.352 82.514,147.693 82.565 C 147.601 82.572,146.375 83.495,144.968 84.616 M107.813 87.142 C 89.751 89.436,80.393 99.960,76.697 122.135 C 75.256 130.781,74.214 134.297,71.380 140.081 C 69.403 144.118,69.545 144.463,73.332 144.808 C 77.272 145.167,77.380 145.310,78.133 151.185 C 79.556 162.290,80.161 164.474,82.256 166.074 C 84.201 167.558,89.583 168.469,89.223 167.253 C 88.645 165.298,86.697 153.490,86.185 148.828 C 85.775 145.099,85.780 145.116,84.696 144.558 C 79.023 141.640,81.735 133.082,88.064 133.931 C 92.784 134.564,94.691 140.913,91.060 143.906 L 90.126 144.676 90.642 148.705 C 91.367 154.368,93.546 166.786,93.876 167.136 C 93.917 167.179,94.891 166.974,96.042 166.680 C 100.085 165.648,101.523 166.056,102.616 168.547 C 103.603 170.796,103.640 176.781,102.690 180.666 C 102.553 181.229,102.703 181.198,106.286 179.927 C 108.343 179.197,114.714 177.016,120.443 175.081 C 126.172 173.146,130.879 171.544,130.904 171.522 C 130.928 171.500,130.672 170.341,130.335 168.945 C 129.587 165.854,128.951 160.896,128.730 156.445 C 128.536 152.527,128.728 152.633,126.296 155.097 C 115.101 166.437,105.444 168.524,100.707 160.626 C 99.419 158.480,99.110 156.660,99.296 152.311 L 99.452 148.667 98.593 146.783 C 91.520 131.261,96.096 111.479,109.231 100.800 C 112.403 98.221,124.284 90.885,125.289 90.885 C 126.272 90.885,124.668 89.892,121.999 88.847 C 118.704 87.558,111.427 86.683,107.813 87.142 M133.709 101.100 C 135.138 103.140,133.099 107.038,129.791 108.586 C 124.450 111.087,122.492 112.135,120.466 113.580 C 118.035 115.313,115.344 117.787,114.374 119.180 L 113.803 120.000 115.170 120.321 C 120.600 121.597,124.740 125.647,124.740 129.684 C 124.740 130.234,125.014 130.559,126.042 131.225 C 131.662 134.866,127.917 143.418,121.517 141.557 C 117.226 140.310,115.932 134.355,119.357 131.622 C 121.565 129.860,118.963 126.291,114.416 124.848 C 110.818 123.706,110.506 124.113,110.232 130.309 C 110.073 133.936,109.876 134.434,108.470 134.787 C 103.524 136.029,104.856 123.480,110.402 116.594 C 114.543 111.452,119.528 107.878,126.065 105.366 C 128.283 104.513,128.625 104.294,129.124 103.406 C 130.493 100.970,132.804 99.808,133.709 101.100 M248.047 102.171 L 250.391 102.474 250.462 106.706 C 250.502 109.033,250.502 110.937,250.462 110.937 C 250.423 110.937,249.774 110.703,249.021 110.417 C 243.963 108.494,241.344 110.217,240.989 115.701 L 240.809 118.490 245.274 118.490 L 249.740 118.490 249.740 122.266 L 249.740 126.042 245.313 126.042 L 240.885 126.042 240.885 141.542 L 240.885 157.043 236.320 156.972 L 231.754 156.901 231.766 141.602 L 231.779 126.302 228.780 126.302 L 225.781 126.302 225.781 122.396 L 225.781 118.490 228.737 118.490 L 231.694 118.490 231.851 114.909 C 232.302 104.704,237.291 100.780,248.047 102.171 M273.184 102.086 C 276.966 102.537,276.563 101.976,276.563 106.776 C 276.563 109.065,276.533 110.937,276.497 110.937 C 276.462 110.937,275.816 110.703,275.062 110.417 C 273.333 109.759,270.388 109.712,269.103 110.322 C 267.660 111.007,267.345 111.913,267.058 116.211 L 266.906 118.490 271.344 118.490 L 275.781 118.490 275.781 122.266 L 275.781 126.042 271.320 126.042 L 266.858 126.042 266.976 141.542 L 267.094 157.043 262.518 156.972 L 257.943 156.901 257.884 141.570 L 257.825 126.239 254.954 126.285 L 252.083 126.330 252.083 122.410 L 252.083 118.490 254.908 118.490 L 257.732 118.490 257.900 115.167 C 258.412 105.062,263.269 100.904,273.184 102.086 M289.423 102.593 C 292.779 103.869,293.960 108.677,291.581 111.385 C 287.303 116.259,279.652 111.202,282.394 105.313 C 283.542 102.849,286.790 101.592,289.423 102.593 M204.688 107.422 L 204.688 111.979 193.359 111.979 L 182.031 111.979 182.031 118.620 L 182.031 125.260 192.318 125.260 L 202.604 125.260 202.604 129.688 L 202.604 134.115 192.318 134.115 L 182.031 134.115 182.031 141.016 L 182.031 147.917 193.620 147.917 L 205.208 147.917 205.208 152.474 L 205.208 157.031 188.932 157.031 L 172.656 157.031 172.656 129.948 L 172.656 102.865 188.672 102.865 L 204.688 102.865 204.688 107.422 M220.515 129.954 L 220.469 157.043 215.993 156.972 L 211.516 156.901 211.392 130.021 C 211.324 115.237,211.331 103.079,211.407 103.003 C 211.483 102.927,213.574 102.865,216.053 102.865 L 220.560 102.865 220.515 129.954 M320.258 117.601 C 329.124 119.425,334.381 126.781,334.480 137.500 L 334.505 140.234 320.603 140.302 L 306.701 140.369 306.856 141.502 C 308.012 149.938,318.499 153.212,324.376 146.971 L 325.705 145.560 330.038 145.632 L 334.372 145.703 333.186 148.127 C 325.869 163.092,302.094 160.163,298.262 143.825 C 294.608 128.245,305.998 114.666,320.258 117.601 M291.927 137.630 L 291.927 157.031 287.370 157.031 L 282.813 157.031 282.813 137.630 L 282.813 118.229 287.370 118.229 L 291.927 118.229 291.927 137.630 M314.453 124.831 C 310.739 125.794,308.196 128.523,307.196 132.617 L 307.021 133.333 316.401 133.333 C 321.745 133.333,325.781 133.233,325.781 133.100 C 325.781 127.931,319.679 123.477,314.453 124.831 M121.875 134.896 C 120.851 135.920,121.592 137.760,123.028 137.760 C 123.716 137.760,124.740 136.677,124.740 135.948 C 124.740 134.689,122.796 133.975,121.875 134.896 M86.108 138.497 C 84.685 140.069,87.039 142.128,88.542 140.625 C 89.201 139.965,89.197 139.565,88.523 138.707 C 87.881 137.891,86.746 137.792,86.108 138.497 M111.777 147.801 C 110.648 148.592,111.379 150.781,112.772 150.781 C 113.460 150.781,114.583 149.658,114.583 148.970 C 114.583 147.687,112.926 146.996,111.777 147.801 " stroke="none" fill="#fbfbfb" fill-rule="evenodd"></path><path id="path1" d="M239.974 102.558 C 234.316 104.269,232.252 107.507,231.853 115.299 L 231.690 118.490 228.736 118.490 L 225.781 118.490 225.781 122.266 L 225.781 126.042 228.776 126.042 L 231.771 126.042 231.771 141.406 L 231.771 156.771 236.328 156.771 L 240.885 156.771 240.885 141.406 L 240.885 126.042 245.313 126.042 L 249.740 126.042 249.740 122.266 L 249.740 118.490 245.313 118.490 L 240.885 118.490 240.885 116.419 C 240.885 109.917,242.962 108.561,249.870 110.554 C 250.374 110.700,250.391 110.581,250.391 106.719 L 250.391 102.734 249.740 102.520 C 248.268 102.034,241.620 102.061,239.974 102.558 M266.406 102.498 C 260.500 104.066,258.081 107.934,258.075 115.820 L 258.073 118.490 255.078 118.490 L 252.083 118.490 252.083 122.266 L 252.083 126.042 255.078 126.042 L 258.073 126.042 258.073 141.406 L 258.073 156.771 262.500 156.771 L 266.927 156.771 266.927 141.406 L 266.927 126.042 271.354 126.042 L 275.781 126.042 275.781 122.266 L 275.781 118.490 271.354 118.490 L 266.927 118.490 266.927 116.753 C 266.927 112.437,267.771 110.525,269.942 109.922 C 271.625 109.455,272.326 109.530,275.977 110.571 L 276.563 110.738 276.563 106.709 L 276.563 102.680 274.755 102.382 C 272.302 101.977,268.152 102.035,266.406 102.498 M285.024 102.813 C 282.819 103.849,281.555 106.327,282.007 108.724 C 283.255 115.335,292.708 114.471,292.708 107.746 C 292.708 103.811,288.563 101.149,285.024 102.813 M211.458 129.883 L 211.458 156.771 215.951 156.771 L 220.443 156.771 220.391 129.935 L 220.340 103.099 215.899 103.047 L 211.458 102.995 211.458 129.883 M172.656 130.078 L 172.656 157.031 188.867 157.032 L 205.078 157.032 205.001 152.605 L 204.924 148.177 193.348 148.177 L 181.771 148.177 181.771 141.146 L 181.771 134.115 192.188 134.115 L 202.604 134.115 202.604 129.649 L 202.604 125.184 192.253 125.287 L 181.901 125.391 181.832 118.685 L 181.762 111.979 193.220 111.979 L 204.679 111.979 204.626 107.552 L 204.573 103.125 188.614 103.125 L 172.656 103.125 172.656 130.078 M311.818 117.963 C 301.452 120.680,295.677 131.556,298.263 143.490 C 302.037 160.909,328.886 162.916,333.972 146.159 L 334.150 145.573 329.946 145.573 L 325.743 145.573 324.440 146.999 C 318.459 153.543,307.939 150.037,306.680 141.081 L 306.543 140.104 320.459 140.104 L 334.375 140.104 334.375 137.534 C 334.375 123.557,324.189 114.719,311.818 117.963 M282.892 137.500 L 282.943 156.771 287.435 156.771 L 291.927 156.771 291.927 137.500 L 291.927 118.229 287.384 118.229 L 282.842 118.229 282.892 137.500 M320.626 125.359 C 323.198 126.587,325.279 129.535,325.704 132.552 L 325.832 133.464 316.406 133.475 L 306.981 133.486 307.121 132.619 C 308.124 126.442,315.071 122.707,320.626 125.359 " stroke="none" fill="#0c151f" fill-rule="evenodd"></path><path id="path2" d="M148.103 76.367 C 147.458 76.833,146.127 77.895,145.145 78.727 C 142.202 81.222,131.992 87.760,131.040 87.760 C 130.901 87.760,129.992 87.296,129.020 86.728 C 113.820 77.846,92.171 82.445,81.262 96.875 C 76.171 103.609,74.282 108.961,71.760 123.796 C 70.759 129.683,70.012 132.226,67.957 136.749 C 64.246 144.920,65.290 148.293,71.781 149.104 C 72.549 149.200,73.177 149.369,73.177 149.478 C 73.177 150.178,74.806 160.754,75.128 162.139 C 77.250 171.289,85.977 174.517,98.229 170.685 C 100.005 170.129,99.405 177.491,97.249 182.702 C 96.314 184.963,96.309 185.650,97.217 186.654 C 98.040 187.563,98.592 187.438,107.721 184.277 C 112.426 182.648,120.206 180.007,125.009 178.410 C 137.141 174.375,136.445 175.026,135.027 169.030 C 133.689 163.371,132.823 155.881,132.815 149.899 L 132.813 147.844 134.730 145.341 C 147.278 128.961,153.028 110.409,152.523 87.930 C 152.268 76.566,151.308 74.054,148.103 76.367 M148.057 86.133 C 149.180 106.922,142.645 128.141,130.352 143.618 C 127.949 146.643,119.630 155.058,117.253 156.868 L 115.625 158.107 115.625 156.129 C 115.625 154.178,115.638 154.139,116.577 153.315 C 121.554 148.945,116.200 140.887,110.238 143.773 C 105.981 145.834,106.212 153.232,110.567 154.325 C 111.586 154.581,111.552 160.555,110.530 160.944 C 106.052 162.646,104.040 159.984,104.030 152.347 L 104.024 147.266 102.788 144.579 C 98.071 134.327,99.354 120.907,105.976 111.239 C 110.226 105.033,116.140 100.742,131.380 92.802 C 138.320 89.186,141.790 87.078,145.134 84.445 C 146.450 83.409,147.602 82.559,147.695 82.557 C 147.787 82.554,147.950 84.163,148.057 86.133 M116.425 87.398 C 120.216 88.044,125.526 89.893,125.519 90.564 C 125.518 90.669,124.082 91.542,122.329 92.504 C 109.413 99.591,104.209 104.240,99.851 112.586 C 94.248 123.314,93.844 137.299,98.850 147.179 C 99.502 148.466,99.512 148.566,99.342 152.306 C 99.094 157.790,99.815 160.220,102.484 162.889 C 107.430 167.836,115.474 165.361,125.520 155.803 C 127.067 154.330,128.387 153.125,128.451 153.125 C 128.515 153.125,128.647 154.533,128.744 156.253 C 128.984 160.494,129.578 165.123,130.328 168.596 C 130.670 170.182,130.925 171.505,130.895 171.535 C 130.865 171.566,125.864 173.282,119.782 175.350 C 113.700 177.417,107.382 179.587,105.742 180.170 C 102.194 181.433,102.497 181.605,103.016 178.618 C 103.899 173.531,103.206 168.520,101.401 166.935 C 100.305 165.972,99.529 165.935,96.304 166.692 C 95.023 166.993,93.925 167.189,93.863 167.127 C 93.482 166.746,91.221 153.941,90.507 148.121 L 90.101 144.809 91.214 143.693 C 93.652 141.252,93.537 137.706,90.945 135.369 C 86.285 131.168,79.492 136.602,82.334 142.256 C 82.825 143.232,84.661 144.792,85.321 144.792 C 85.747 144.792,85.746 144.785,86.558 151.172 C 87.120 155.593,88.693 164.975,89.234 167.131 L 89.396 167.776 87.081 167.658 C 80.738 167.337,79.336 164.446,77.739 148.389 C 77.478 145.763,76.138 144.798,72.736 144.788 C 69.711 144.779,69.531 143.989,71.564 139.641 C 74.321 133.745,75.283 130.449,76.564 122.498 C 78.547 110.200,80.926 104.171,86.285 97.868 C 93.049 89.911,105.599 85.551,116.425 87.398 M131.323 101.034 C 130.862 101.315,130.137 102.047,129.713 102.661 C 128.487 104.432,128.305 104.574,126.274 105.337 C 113.544 110.120,105.705 119.643,105.622 130.423 L 105.599 133.373 106.449 134.134 C 107.426 135.009,108.068 135.082,109.150 134.443 C 110.073 133.897,110.103 133.774,110.244 129.818 C 110.310 127.975,110.529 126.146,110.777 125.361 L 111.197 124.029 112.542 124.274 C 118.253 125.312,121.896 129.347,119.293 131.750 C 114.153 136.495,120.641 144.748,126.356 140.736 C 129.876 138.264,129.226 132.118,125.313 130.876 C 124.936 130.756,124.772 130.389,124.655 129.401 C 124.161 125.233,120.639 121.788,115.535 120.479 C 113.552 119.970,113.576 120.091,115.091 118.270 C 117.632 115.217,121.507 112.479,126.998 109.857 C 131.502 107.706,132.303 107.158,133.215 105.602 C 135.066 102.444,133.845 99.496,131.323 101.034 M124.219 134.896 C 125.725 136.402,123.693 138.588,121.933 137.355 C 121.529 137.072,121.354 136.684,121.354 136.068 C 121.354 134.546,123.139 133.816,124.219 134.896 M88.532 138.591 C 89.183 139.290,89.214 140.154,88.607 140.675 C 87.301 141.796,85.691 141.207,85.681 139.604 C 85.672 138.135,87.501 137.485,88.532 138.591 M114.178 147.975 C 115.322 149.608,113.410 151.520,111.777 150.376 C 111.074 149.884,110.997 148.570,111.629 147.872 C 112.248 147.188,113.667 147.245,114.178 147.975 " stroke="none" fill="#2f93f6" fill-rule="evenodd"></path><path id="path3" d="M109.838 82.222 C 110.450 82.277,111.388 82.277,111.921 82.221 C 112.454 82.165,111.953 82.120,110.807 82.121 C 109.661 82.121,109.225 82.167,109.838 82.222 M211.311 111.068 C 211.311 114.648,211.347 116.149,211.392 114.403 C 211.437 112.657,211.437 109.727,211.393 107.893 C 211.348 106.058,211.311 107.487,211.311 111.068 M109.882 106.445 L 108.984 107.422 109.961 106.524 C 110.498 106.031,110.938 105.591,110.938 105.548 C 110.938 105.349,110.717 105.536,109.882 106.445 M292.769 107.813 C 292.769 108.314,292.822 108.519,292.888 108.268 C 292.953 108.018,292.953 107.607,292.888 107.357 C 292.822 107.106,292.769 107.311,292.769 107.813 M220.426 123.438 C 220.426 127.233,220.463 128.786,220.507 126.888 C 220.552 124.990,220.552 121.885,220.507 119.987 C 220.463 118.089,220.426 119.642,220.426 123.438 M230.143 126.225 C 230.465 126.288,230.993 126.288,231.315 126.225 C 231.637 126.163,231.374 126.113,230.729 126.113 C 230.085 126.113,229.821 126.163,230.143 126.225 M254.362 126.232 C 254.971 126.287,255.967 126.287,256.576 126.232 C 257.184 126.178,256.686 126.133,255.469 126.133 C 254.251 126.133,253.753 126.178,254.362 126.232 M257.935 141.667 C 257.935 150.046,257.967 153.473,258.008 149.284 C 258.048 145.094,258.048 138.239,258.008 134.049 C 257.967 129.860,257.935 133.288,257.935 141.667 M95.113 130.990 C 95.113 131.491,95.166 131.696,95.232 131.445 C 95.297 131.195,95.297 130.785,95.232 130.534 C 95.166 130.283,95.113 130.488,95.113 130.990 M181.852 141.016 C 181.853 141.875,181.902 142.195,181.960 141.727 C 182.018 141.259,182.016 140.556,181.957 140.165 C 181.897 139.773,181.850 140.156,181.852 141.016 M220.422 148.438 C 220.422 151.374,220.460 152.575,220.507 151.107 C 220.553 149.639,220.553 147.236,220.507 145.768 C 220.460 144.300,220.422 145.501,220.422 148.438 M205.045 151.693 C 205.046 153.268,205.089 153.879,205.141 153.050 C 205.192 152.222,205.192 150.933,205.140 150.186 C 205.087 149.439,205.045 150.117,205.045 151.693 M267.023 153.906 C 267.023 155.410,267.066 156.025,267.119 155.273 C 267.172 154.521,267.172 153.291,267.119 152.539 C 267.066 151.787,267.023 152.402,267.023 153.906 M132.873 152.604 C 132.873 153.105,132.927 153.311,132.992 153.060 C 133.058 152.809,133.058 152.399,132.992 152.148 C 132.927 151.898,132.873 152.103,132.873 152.604 M231.738 156.843 C 231.849 156.954,233.865 157.012,236.218 156.972 L 240.495 156.900 236.015 156.770 C 233.551 156.699,231.626 156.732,231.738 156.843 M213.737 156.965 C 214.919 157.013,216.852 157.013,218.034 156.965 C 219.215 156.916,218.249 156.877,215.885 156.877 C 213.522 156.877,212.555 156.916,213.737 156.965 " stroke="none" fill="#99afc2" fill-rule="evenodd"></path><path id="path4" d="M243.815 102.002 C 244.066 102.068,244.476 102.068,244.727 102.002 C 244.977 101.937,244.772 101.883,244.271 101.883 C 243.770 101.883,243.564 101.937,243.815 102.002 M269.730 102.007 C 270.054 102.069,270.522 102.067,270.771 102.002 C 271.020 101.937,270.755 101.886,270.182 101.889 C 269.609 101.891,269.406 101.945,269.730 102.007 M180.534 103.060 C 184.938 103.100,192.145 103.100,196.549 103.060 C 200.954 103.020,197.350 102.987,188.542 102.987 C 179.733 102.987,176.130 103.020,180.534 103.060 M213.737 103.058 C 214.919 103.107,216.852 103.107,218.034 103.058 C 219.215 103.010,218.249 102.971,215.885 102.971 C 213.522 102.971,212.555 103.010,213.737 103.058 M250.365 106.641 C 250.365 108.789,250.405 109.633,250.454 108.517 C 250.503 107.400,250.503 105.642,250.454 104.610 C 250.404 103.579,250.364 104.492,250.365 106.641 M220.424 110.677 C 220.424 114.043,220.462 115.420,220.507 113.737 C 220.552 112.054,220.552 109.300,220.507 107.617 C 220.462 105.934,220.424 107.311,220.424 110.677 M181.884 118.620 C 181.884 122.344,181.921 123.831,181.966 121.925 C 182.010 120.018,182.010 116.972,181.965 115.154 C 181.921 113.336,181.884 114.896,181.884 118.620 M257.898 116.797 C 257.899 117.799,257.946 118.178,258.003 117.637 C 258.059 117.097,258.058 116.277,258.000 115.815 C 257.943 115.352,257.897 115.794,257.898 116.797 M316.215 117.374 C 316.610 117.434,317.196 117.433,317.517 117.371 C 317.837 117.309,317.513 117.260,316.797 117.262 C 316.081 117.264,315.819 117.315,316.215 117.374 M184.192 125.454 C 185.308 125.503,187.066 125.503,188.098 125.454 C 189.130 125.404,188.216 125.364,186.068 125.365 C 183.919 125.365,183.075 125.405,184.192 125.454 M226.765 126.233 C 227.377 126.288,228.315 126.287,228.848 126.231 C 229.381 126.175,228.880 126.130,227.734 126.131 C 226.589 126.132,226.152 126.178,226.765 126.233 M308.268 133.525 C 309.020 133.578,310.251 133.578,311.003 133.525 C 311.755 133.473,311.139 133.430,309.635 133.430 C 308.132 133.430,307.516 133.473,308.268 133.525 M322.591 133.524 C 323.200 133.579,324.196 133.579,324.805 133.524 C 325.413 133.469,324.915 133.424,323.698 133.424 C 322.480 133.424,321.982 133.469,322.591 133.524 M181.852 135.807 C 181.853 136.667,181.902 136.987,181.960 136.519 C 182.018 136.051,182.016 135.348,181.957 134.956 C 181.897 134.565,181.850 134.948,181.852 135.807 M282.878 135.807 C 282.881 136.380,282.934 136.584,282.997 136.260 C 283.059 135.936,283.057 135.467,282.991 135.218 C 282.926 134.969,282.875 135.234,282.878 135.807 M334.435 138.021 C 334.435 138.522,334.489 138.727,334.555 138.477 C 334.620 138.226,334.620 137.816,334.555 137.565 C 334.489 137.314,334.435 137.520,334.435 138.021 M282.873 138.281 C 282.873 138.783,282.927 138.988,282.992 138.737 C 283.058 138.486,283.058 138.076,282.992 137.826 C 282.927 137.575,282.873 137.780,282.873 138.281 M313.886 140.299 C 317.727 140.340,323.938 140.340,327.688 140.299 C 331.437 140.259,328.294 140.225,320.703 140.225 C 313.112 140.225,310.044 140.259,313.886 140.299 M282.898 145.182 C 282.899 146.185,282.946 146.563,283.003 146.023 C 283.059 145.483,283.058 144.662,283.000 144.200 C 282.943 143.738,282.897 144.180,282.898 145.182 M181.831 146.875 C 181.831 147.376,181.885 147.581,181.950 147.331 C 182.016 147.080,182.016 146.670,181.950 146.419 C 181.885 146.169,181.831 146.374,181.831 146.875 M193.536 148.111 C 204.082 148.177,204.921 148.216,205.045 148.636 C 205.147 148.983,205.166 148.967,205.125 148.568 C 205.072 148.056,204.878 148.047,193.616 148.043 L 182.161 148.038 193.536 148.111 M220.393 155.078 C 220.395 155.938,220.443 156.258,220.501 155.790 C 220.559 155.322,220.558 154.618,220.499 154.227 C 220.439 153.836,220.392 154.219,220.393 155.078 M205.022 155.599 C 205.024 156.315,205.075 156.577,205.135 156.181 C 205.195 155.785,205.193 155.200,205.131 154.879 C 205.069 154.559,205.020 154.883,205.022 155.599 M262.500 156.771 L 257.943 156.920 262.420 156.975 C 265.185 157.010,266.958 156.932,267.057 156.771 C 267.146 156.628,267.182 156.536,267.138 156.566 C 267.094 156.597,265.007 156.689,262.500 156.771 M284.961 156.965 C 286.214 157.012,288.265 157.012,289.518 156.965 C 290.771 156.917,289.746 156.878,287.240 156.878 C 284.733 156.878,283.708 156.917,284.961 156.965 " stroke="none" fill="#7c7c7c" fill-rule="evenodd"></path></g></svg>